<svg xmlns="http://www.w3.org/2000/svg" viewBox="0 0 64 64"><rect width="64" height="64" rx="14" fill="#B4532A"/><path fill="#FBF7F0" transform="translate(13.65 46) scale(0.02000 -0.02000)" d="M412.29251439124346 897.8831712678075V129.8765814974904Q412.29251439124346 104.33309710025787 422.07233334332705 91.38514993712306Q431.85215229541063 78.43720277398825 450.7898081615567 73.19082415103912L496.91109182685614 62.92344943434Q526.1688432916999 53.40637976676226 526.1688432916999 31.929226964712143Q526.1688432916999 0 483.4343795105815 0H126.18648283183575Q105.21866159886122 0 95.11321983486414 8.304402817040682Q85.00777807086706 16.608805634081364 85.00777807086706 30.50599557161331Q85.00777807086706 42.09038020670414 92.84463109821081 50.02792440727353Q100.68148412555456 57.96546860784292 116.80052310973406 62.701396726071835L166.07752788811922 73.27925728261471Q185.1036168858409 78.70348554104567 194.7950027063489 91.18513773009181Q204.4863885268569 103.66678991913795 204.4863885268569 129.03342154622078V761.2689329981804Q204.4863885268569 782.3238647654653 197.47218429669738 791.8055169545114Q190.45798006653786 801.2871691435575 174.07387233525515 803.0662083849311L105.10505474358797 805.556863322854Q89.38504330813885 808.047518260777 82.57079699635506 814.750840049237Q75.75655068457127 821.454161837697 75.75655068457127 831.9712315052748Q75.75655068457127 844.0441687703133 83.54929572343826 851.8927338644862Q91.34204076230526 859.7412989586592 112.08658177405596 866.9677734375L284.9341411665082 926.3858640044928Q313.9493732228875 936.9692517742515 332.20386630669236 941.5277744010091Q350.4583593904972 946.0862970277667 365.19981472194195 946.0862970277667Q388.70140201598406 946.0862970277667 400.49695820361376 933.1575451679528Q412.29251439124346 920.2287933081388 412.29251439124346 897.8831712678075ZM384.9070435836911 688.3978878036141 348.79917377978563 724.7732409015298 391.42702843248844 762.1991506516933Q509.57394030690193 868.4758302047849 597.0485868193209 910.9929946400225Q684.5232333317399 953.5101590752602 765.2422613948584 953.5101590752602Q889.7243445515633 953.5101590752602 964.9643214829266 875.5779111236334Q1040.20429841429 797.6456631720066 1040.20429841429 661.7981219291687V133.47638104110956Q1040.20429841429 105.91191404312849 1051.2393223792315 92.05297297239304Q1062.274346344173 78.19403190165758 1082.6108941957355 72.39189425855875L1124.3837688863277 62.34558887779713Q1152.530002310872 52.7400860786438 1152.530002310872 31.929226964712143Q1152.530002310872 0 1110.6859872341156 0H758.2343684434891Q715.5441347211599 0 715.5441347211599 31.929226964712143Q715.5441347211599 53.40637976676226 744.4008649066091 62.92344943434L792.391452126205 73.10239101946354Q813.7259246557951 78.5035208761692 823.1946983002126 92.93880664929748Q832.6634719446301 107.37409242242575 832.6634719446301 134.449145488441V630.9445112198591Q832.6634719446301 730.7882546633482 784.1306689530611 780.4212230928242Q735.5978659614921 830.0541915223002 654.4843743667006 830.0541915223002Q604.0850688815117 830.0541915223002 547.9360990896821 805.0184148326516Q491.7871292978525 779.982638143003 427.0908744111657 724.6681580320001ZM1011.9124892055988 688.3978878036141 975.8046194016933 724.7732409015298 1018.1671746596694 762.4644500464201Q1132.0338814482093 865.1652222946286 1214.5784642249346 909.3376906849444Q1297.1230470016599 953.5101590752602 1374.6610716506839 953.5101590752602Q1493.100070670247 953.5101590752602 1558.4387106783688 875.1331784576178Q1623.7773506864905 796.7561978399754 1638.9088679552078 661.7096887975931L1701.4536676332355 133.65324730426073Q1704.6989408135414 105.95613060891628 1714.1997613199055 91.8419099971652Q1723.7005818262696 77.72768938541412 1744.0371296778321 72.30346112698317L1786.4331869333982 62.61296359449625Q1802.50800935179 57.943353578448296 1810.278537530452 50.0500259436667Q1818.049065709114 42.1566983088851 1818.049065709114 30.50599557161331Q1818.049065709114 16.56458906829357 1808.2325609698892 8.282294534146786Q1798.4160562306643 0 1776.826157875359 0H1416.9088002368808Q1374.2185665145516 0 1374.2185665145516 31.929226964712143Q1374.2185665145516 53.27374356240034 1403.0752967000008 62.92344943434L1451.0658839195967 73.10239101946354Q1472.4003564491868 78.43720277398825 1483.4917666837573 92.94986416399479Q1494.5831769183278 107.46252555400133 1491.3379037380219 134.62601175159216L1431.545999698341 630.9445112198591Q1419.3694045618176 730.2545971795917 1379.802133731544 780.154394350946Q1340.2348629012704 830.0541915223002 1264.8759490698576 830.0541915223002Q1218.71884457767 830.0541915223002 1167.1793650463223 803.7847518883646Q1115.6398855149746 777.5153122544289 1053.8310206383467 724.9334574267268Z"/></svg>
