<svg xmlns="http://www.w3.org/2000/svg" viewBox="0 0 191 44" width="191" height="44" role="img" aria-label="Mindless Club"><title>Mindless Club</title><g fill="#2A2622"><path transform="translate(4.00 31) scale(0.01445 -0.01445)" d="M412.29251439124346 897.8831712678075V129.8765814974904Q412.29251439124346 104.33309710025787 422.07233334332705 91.38514993712306Q431.85215229541063 78.43720277398825 450.7898081615567 73.19082415103912L496.91109182685614 62.92344943434Q526.1688432916999 53.40637976676226 526.1688432916999 31.929226964712143Q526.1688432916999 0 483.4343795105815 0H126.18648283183575Q105.21866159886122 0 95.11321983486414 8.304402817040682Q85.00777807086706 16.608805634081364 85.00777807086706 30.50599557161331Q85.00777807086706 42.09038020670414 92.84463109821081 50.02792440727353Q100.68148412555456 57.96546860784292 116.80052310973406 62.701396726071835L166.07752788811922 73.27925728261471Q185.1036168858409 78.70348554104567 194.7950027063489 91.18513773009181Q204.4863885268569 103.66678991913795 204.4863885268569 129.03342154622078V761.2689329981804Q204.4863885268569 782.3238647654653 197.47218429669738 791.8055169545114Q190.45798006653786 801.2871691435575 174.07387233525515 803.0662083849311L105.10505474358797 805.556863322854Q89.38504330813885 808.047518260777 82.57079699635506 814.750840049237Q75.75655068457127 821.454161837697 75.75655068457127 831.9712315052748Q75.75655068457127 844.0441687703133 83.54929572343826 851.8927338644862Q91.34204076230526 859.7412989586592 112.08658177405596 866.9677734375L284.9341411665082 926.3858640044928Q313.9493732228875 936.9692517742515 332.20386630669236 941.5277744010091Q350.4583593904972 946.0862970277667 365.19981472194195 946.0862970277667Q388.70140201598406 946.0862970277667 400.49695820361376 933.1575451679528Q412.29251439124346 920.2287933081388 412.29251439124346 897.8831712678075ZM384.9070435836911 688.3978878036141 348.79917377978563 724.7732409015298 391.42702843248844 762.1991506516933Q509.57394030690193 868.4758302047849 597.0485868193209 910.9929946400225Q684.5232333317399 953.5101590752602 765.2422613948584 953.5101590752602Q889.7243445515633 953.5101590752602 964.9643214829266 875.5779111236334Q1040.20429841429 797.6456631720066 1040.20429841429 661.7981219291687V133.47638104110956Q1040.20429841429 105.91191404312849 1051.2393223792315 92.05297297239304Q1062.274346344173 78.19403190165758 1082.6108941957355 72.39189425855875L1124.3837688863277 62.34558887779713Q1152.530002310872 52.7400860786438 1152.530002310872 31.929226964712143Q1152.530002310872 0 1110.6859872341156 0H758.2343684434891Q715.5441347211599 0 715.5441347211599 31.929226964712143Q715.5441347211599 53.40637976676226 744.4008649066091 62.92344943434L792.391452126205 73.10239101946354Q813.7259246557951 78.5035208761692 823.1946983002126 92.93880664929748Q832.6634719446301 107.37409242242575 832.6634719446301 134.449145488441V630.9445112198591Q832.6634719446301 730.7882546633482 784.1306689530611 780.4212230928242Q735.5978659614921 830.0541915223002 654.4843743667006 830.0541915223002Q604.0850688815117 830.0541915223002 547.9360990896821 805.0184148326516Q491.7871292978525 779.982638143003 427.0908744111657 724.6681580320001ZM1011.9124892055988 688.3978878036141 975.8046194016933 724.7732409015298 1018.1671746596694 762.4644500464201Q1132.0338814482093 865.1652222946286 1214.5784642249346 909.3376906849444Q1297.1230470016599 953.5101590752602 1374.6610716506839 953.5101590752602Q1493.100070670247 953.5101590752602 1558.4387106783688 875.1331784576178Q1623.7773506864905 796.7561978399754 1638.9088679552078 661.7096887975931L1701.4536676332355 133.65324730426073Q1704.6989408135414 105.95613060891628 1714.1997613199055 91.8419099971652Q1723.7005818262696 77.72768938541412 1744.0371296778321 72.30346112698317L1786.4331869333982 62.61296359449625Q1802.50800935179 57.943353578448296 1810.278537530452 50.0500259436667Q1818.049065709114 42.1566983088851 1818.049065709114 30.50599557161331Q1818.049065709114 16.56458906829357 1808.2325609698892 8.282294534146786Q1798.4160562306643 0 1776.826157875359 0H1416.9088002368808Q1374.2185665145516 0 1374.2185665145516 31.929226964712143Q1374.2185665145516 53.27374356240034 1403.0752967000008 62.92344943434L1451.0658839195967 73.10239101946354Q1472.4003564491868 78.43720277398825 1483.4917666837573 92.94986416399479Q1494.5831769183278 107.46252555400133 1491.3379037380219 134.62601175159216L1431.545999698341 630.9445112198591Q1419.3694045618176 730.2545971795917 1379.802133731544 780.154394350946Q1340.2348629012704 830.0541915223002 1264.8759490698576 830.0541915223002Q1218.71884457767 830.0541915223002 1167.1793650463223 803.7847518883646Q1115.6398855149746 777.5153122544289 1053.8310206383467 724.9334574267268Z"/><path transform="translate(30.52 31) scale(0.01445 -0.01445)" d="M412.95569541305304 897.9716043993831V129.965014629066Q412.95569541305304 104.28888053447008 422.66918951645494 91.2293542958796Q432.38268361985683 78.16982805728912 451.3645560517907 73.27925728261471L498.19745541363955 63.3234738484025Q515.0270046517253 58.653863832354546 523.0643615722656 50.70526886358857Q531.101718492806 42.7566738948226 531.101718492806 30.50599557161331Q531.101718492806 16.56458906829357 520.7515562698245 8.282294534146786Q510.40139404684305 0 488.81149569153786 0H126.76123072206974Q105.8818426206708 0 95.77640085667372 8.282294534146786Q85.67095909267664 16.56458906829357 85.67095909267664 30.50599557161331Q85.67095909267664 42.09038020670414 93.4414872713387 50.005816124379635Q101.21201545000076 57.92125204205513 117.37527099996805 62.65718016028404L166.7407089099288 73.27925728261471Q185.76679790765047 78.70348554104567 195.45818372815847 91.2293542958796Q205.14956954866648 103.75522305071354 205.14956954866648 129.29872094094753V761.4457992613316Q205.14956954866648 782.4565144628286 198.11325703561306 791.8718418031931Q191.07694452255964 801.2871691435575 174.69283679127693 803.0662083849311L105.94510202854872 805.556863322854Q90.09244089573622 808.047518260777 83.30030286684632 814.750840049237Q76.50816483795643 821.454161837697 76.50816483795643 832.0154480710626Q76.50816483795643 844.1326019018888 84.30090987682343 851.936950430274Q92.09365491569042 859.7412989586592 112.74976279586554 866.9677734375L285.55310562253 926.341647438705Q315.7684109210968 937.2808430567384 333.8007835149765 941.6835700422525Q351.8331561088562 946.0862970277667 364.4397643506527 946.0862970277667Q388.96455862373114 946.0862970277667 400.9601270183921 933.2017617337406Q412.95569541305304 920.3172264397144 412.95569541305304 897.9716043993831ZM288.3759628161788 1129.652581334114Q224.9647417291999 1129.652581334114 185.64697240293026 1165.2211541421711Q146.32920307666063 1200.7897269502282 146.32920307666063 1256.3289318233728Q146.32920307666063 1312.1123044341803 185.71329050511122 1347.0582406520844Q225.0973779335618 1382.0041768699884 288.3759628161788 1382.0041768699884Q352.36505795270205 1382.0041768699884 392.0491399206221 1346.7582528591156Q431.7332218885422 1311.5123288482428 431.7332218885422 1256.3289318233728Q431.7332218885422 1200.7897269502282 392.01598086953163 1165.2211541421711Q352.2987398505211 1129.652581334114 288.3759628161788 1129.652581334114Z"/><path transform="translate(39.02 31) scale(0.01445 -0.01445)" d="M412.29251439124346 897.9716043993831V129.965014629066Q412.29251439124346 104.28888053447008 422.00600849464536 91.40725822001696Q431.71950259804726 78.52563590556383 450.70137502998114 73.27925728261471L496.82265869528055 62.96766600012779Q526.1688432916999 53.40637976676226 526.1688432916999 31.929226964712143Q526.1688432916999 0 483.5228126421571 0H126.09804970026016Q105.21866159886122 0 95.11321983486414 8.282294534146786Q85.00777807086706 16.56458906829357 85.00777807086706 30.50599557161331Q85.00777807086706 42.09038020670414 92.77830624952912 50.005816124379635Q100.54883442819118 57.92125204205513 116.71208997815847 62.65718016028404L166.07752788811922 73.27925728261471Q185.1036168858409 78.70348554104567 194.7950027063489 91.2293542958796Q204.4863885268569 103.75522305071354 204.4863885268569 129.29872094094753V761.4457992613316Q204.4863885268569 782.4565144628286 197.45007601380348 791.8718418031931Q190.41376350075006 801.2871691435575 174.02965576946735 803.0662083849311L105.28192100673914 805.556863322854Q89.42925987392664 808.047518260777 82.63712184503675 814.750840049237Q75.84498381614685 821.454161837697 75.84498381614685 832.0154480710626Q75.84498381614685 844.1326019018888 83.63772885501385 851.936950430274Q91.43047389388084 859.7412989586592 112.08658177405596 866.9677734375L284.8899246007204 926.341647438705Q314.0378063544631 936.9250352084637 332.24808287248015 941.5056661181152Q350.4583593904972 946.0862970277667 365.19981472194195 946.0862970277667Q388.65718545019627 946.0862970277667 400.47484992071986 933.2017617337406Q412.29251439124346 920.3172264397144 412.29251439124346 897.9716043993831ZM385.08388286083937 688.4421043694019 348.9760130569339 724.950107164681 391.6923008412123 762.3318003490567Q507.9066362604499 865.4768135771155 591.4954966381192 909.4934863261878Q675.0843570157886 953.5101590752602 752.8054738938808 953.5101590752602Q870.6665988638997 953.5101590752602 935.6088191270828 875.3763695694506Q1000.5510393902659 797.2425800636411 1015.6383400931954 662.8593195080757L1078.183139771223 134.09541296213865Q1081.428412951529 106.35407970100641 1090.8850168921053 92.12931767478585Q1100.3416208326817 77.90455564856529 1120.8550349473953 72.48032739013433L1163.9585572555661 62.65718016028404Q1180.1218128055334 57.98757014423609 1187.8923409841955 50.07213422656059Q1195.6628691628575 42.1566983088851 1195.6628691628575 30.50599557161331Q1195.6628691628575 16.56458906829357 1185.8463644236326 8.282294534146786Q1176.0298596844077 0 1154.4399613291025 0H793.505622677505Q750.7269558236003 0 750.7269558236003 31.929226964712143Q750.7269558236003 53.27374356240034 779.672119140625 62.96766600012779L828.1933051496744 73.27925728261471Q849.3509114161134 78.52563590556383 860.3981050848961 92.83932274952531Q871.4452987536788 107.15300959348679 868.2000255733728 134.09541296213865L808.2754718363285 632.0941419303417Q796.0988766998053 731.2273616269231 756.9737715274096 780.6407765746117Q717.8486663550138 830.0541915223002 642.8434850499034 830.0541915223002Q595.574740447104 830.0541915223002 542.768862824887 803.8963309638202Q489.9629852026701 777.7384704053402 427.35614681988955 724.6681580320001Z"/><path transform="translate(56.53 31) scale(0.01445 -0.01445)" d="M804.7823348864913 159.82421282678843 799.4452171623707 166.51450669765472V1290.163009636104Q799.4452171623707 1311.1737248376012 792.4089046493173 1320.5890521779656Q785.3725921362638 1330.00437951833 768.9884844049811 1331.7834187597036L700.2407496422529 1334.2740736976266Q684.3880885094404 1336.7647286355495 677.5959504805505 1343.4680504240096Q670.8038124516606 1350.1713722124696 670.8038124516606 1360.732658445835Q670.8038124516606 1372.8498122766614 678.5965574905276 1380.6541608050466Q686.3893025293946 1388.4585093334317 707.0454104095697 1395.6849838122725L879.8487532362342 1455.0588578134775Q908.9966349899769 1465.6422455832362 927.2069115079939 1470.2228764928877Q945.417188026011 1474.8035074025393 960.1586433574557 1474.8035074025393Q983.61601408571 1474.8035074025393 995.4336785562336 1461.9189721085131Q1007.2513430267572 1449.034436814487 1007.2513430267572 1426.6888147741556V129.965014629066Q1007.2513430267572 104.28888053447008 1016.9648371301591 91.2293542958796Q1026.678331233561 78.16982805728912 1045.660203665495 73.27925728261471L1092.4931030273438 63.3234738484025Q1109.3226522654295 58.653863832354546 1117.3600091859698 50.70526886358857Q1125.3973661065102 42.7566738948226 1125.3973661065102 30.50599557161331Q1125.3973661065102 16.56458906829357 1115.0472038835287 8.282294534146786Q1104.6970416605473 0 1083.107143305242 0H897.6715713441372Q855.2963538095355 0 830.0393443480134 24.43380794301629Q804.7823348864913 48.86761588603258 804.7823348864913 94.35323252528906ZM78.99528629332781 443.62086310237646Q78.99528629332781 600.7599148079753 140.78802458569407 715.1317071206868Q202.58076287806034 829.5034994333982 306.922098711133 891.5068292543292Q411.26343454420567 953.5101590752602 538.897616930306 953.5101590752602Q656.5080365911126 953.5101590752602 747.3997300229967 896.5016715936363Q838.2914234548807 839.4931841120124 894.1894477084279 735.0273568630219L847.8559843972325 688.6900354772806Q798.4458821192384 776.3046119585633 727.4835984408855 822.375331338495Q656.5213147625327 868.4460507184267 574.0543617680669 868.4460507184267Q495.9409382715821 868.4460507184267 432.9178738556802 824.5922197028995Q369.8948094397783 780.7383886873722 333.3728741109371 691.8546201810241Q296.8509387820959 602.9708516746759 296.8509387820959 467.31416837871075Q296.8509387820959 340.00824050605297 331.61925273388624 254.15619004145265Q366.3875666856766 168.30413957685232 427.0012005902827 124.86142453923821Q487.6148344948888 81.41870950162411 564.8618640750647 81.41870950162411Q643.5437960028648 81.41870950162411 714.6941865645349 126.83976040035486Q785.844577126205 172.26081129908562 845.1121758073568 263.18544662743807L875.6165303662419 214.98207055032253Q798.7289360612631 101.01101394742727 699.7095843218267 39.082275580614805Q600.6902325823903 -22.846462786197662 484.3562140315771 -22.846462786197662Q367.54783756285906 -22.846462786197662 275.9194467701018 36.702436588704586Q184.2910559773445 96.25133596360683 131.64317113533616 201.5344644971192Q78.99528629332781 306.81759303063154 78.99528629332781 443.62086310237646Z"/><path transform="translate(73.71 31) scale(0.01445 -0.01445)" d="M413.39786107093096 1426.6888147741556V129.965014629066Q413.39786107093096 104.28888053447008 423.11135517433286 91.2293542958796Q432.82484927773476 78.16982805728912 451.80672170966864 73.27925728261471L498.63962107151747 63.3234738484025Q515.4691703096032 58.653863832354546 523.5065272301435 50.70526886358857Q531.5438841506839 42.7566738948226 531.5438841506839 30.50599557161331Q531.5438841506839 16.56458906829357 521.1937219277024 8.282294534146786Q510.843559704721 0 489.2536613494158 0H127.20339637994766Q106.32400827854872 0 96.21856651455164 8.282294534146786Q86.11312475055456 16.56458906829357 86.11312475055456 30.50599557161331Q86.11312475055456 42.1566983088851 94.01628913357854 50.17161137983203Q101.91945351660252 58.18652445077896 118.34798147529364 62.92245256900787L167.18287456780672 73.27925728261471Q186.2089635655284 78.70348554104567 195.9003493860364 91.2293542958796Q205.5917352065444 103.75522305071354 205.5917352065444 129.29872094094753V1290.163009636104Q205.5917352065444 1311.1737248376012 198.55542269349098 1320.5890521779656Q191.51911018043756 1330.00437951833 175.13500244915485 1331.7834187597036L106.38726768642664 1334.2740736976266Q90.53460655361414 1336.7647286355495 83.74246852472425 1343.4680504240096Q76.95033049583435 1350.1713722124696 76.95033049583435 1360.732658445835Q76.95033049583435 1372.8498122766614 84.74307553470135 1380.6541608050466Q92.53582057356834 1388.4585093334317 113.19192845374346 1395.6849838122725L285.9952712804079 1455.0588578134775Q316.2105765789747 1465.998053431511 334.2429491728544 1470.400780417025Q352.2753217667341 1474.8035074025393 364.8819300085306 1474.8035074025393Q389.40672428160906 1474.8035074025393 401.40229267627 1461.9189721085131Q413.39786107093096 1449.034436814487 413.39786107093096 1426.6888147741556Z"/><path transform="translate(82.30 31) scale(0.01445 -0.01445)" d="M946.6135247573256 579.3233316019177Q946.6135247573256 537.0333259552717 921.6001680195332 514.5545625314116Q896.5868112817407 492.0757991075516 848.3833401203156 492.0757991075516H211.17150197923183V551.484199590981H688.0742650255561Q734.4499500319362 551.484199590981 734.4499500319362 592.7000674456358Q734.4499500319362 729.547607421875 677.1816329918802 805.2637933753431Q619.9133159518242 880.9799793288112 524.4396290406585 880.9799793288112Q448.66031854599714 880.9799793288112 391.5458030998707 837.5696230754256Q334.4312876537442 794.1592668220401 302.38408383354545 714.3628566488624Q270.3368800133467 634.5664464756846 270.3368800133467 525.886183179915Q270.3368800133467 326.31304313987494 365.01841193437576 223.03846305981278Q459.69994385540485 119.76388297975063 612.7298847511411 119.76388297975063Q711.7950624749064 119.76388297975063 784.583832975477 165.6881851963699Q857.3726034760475 211.61248741298914 885.8721295744181 287.6180208027363Q897.3241902440786 303.1592943146825 905.2396261617541 308.9288256280124Q913.1550620794296 314.69835694134235 922.5161664932966 314.69835694134235Q935.2341841980815 314.69835694134235 940.9590072594583 303.92551604658365Q946.6838303208351 293.15267515182495 946.0838547348976 277.96809777617455Q939.8188264667988 195.19502686709166 886.7822630666196 126.65194645151496Q833.7456996664405 58.10886603593826 745.5824205353856 17.6312016248703Q657.4191414043307 -22.846462786197662 545.2739116549492 -22.846462786197662Q406.8820118531585 -22.846462786197662 301.42578767985106 35.512512017041445Q195.96956350654364 93.87148682028055 136.9850054010749 199.86569856852293Q78.00044729560614 305.8599103167653 78.00044729560614 448.3777596950531Q78.00044729560614 594.2056949064136 135.57171258702874 708.0769142583013Q193.14297787845135 821.948133610189 299.4082536287606 887.7954644449055Q405.6735293790698 953.6427952796221 551.3333737701178 953.6427952796221Q672.4786986038089 953.6427952796221 761.2423296831548 905.8532175123692Q850.0059607625008 858.0636397451162 898.3097427599132 773.7729905843735Q946.6135247573256 689.4823414236307 946.6135247573256 579.3233316019177Z"/><path transform="translate(97.08 31) scale(0.01445 -0.01445)" d="M488.77113178372383 45.588678158819675Q563.4356826916337 45.588678158819675 606.5445558540523 84.88706548139453Q649.6534290164709 124.18545280396938 649.6534290164709 186.07074731588364Q649.6534290164709 225.19959240406752 631.4553666561842 256.5296772122383Q613.2573042958975 287.8597620204091 565.8143147267401 313.72362638264894Q518.3713251575828 339.5874907448888 431.1702077612281 362.0954997166991Q295.15181524306536 394.1818710193038 218.15383936464787 440.18417667225003Q141.15586348623037 486.18648232519627 109.94208444654942 545.2458220534027Q78.72830540686846 604.3051617816091 78.72830540686846 674.7289900332689Q78.72830540686846 801.2250298112631 168.78013459593058 877.2997200079262Q258.8319637849927 953.3744102045894 425.0336380675435 953.3744102045894Q487.52463223040104 953.3744102045894 528.2705734558403 942.4638334549963Q569.0165146812797 931.5532567054033 595.4870007783175 920.375851213932Q621.9574868753552 909.1984457224607 641.099515683949 909.1984457224607Q660.5290540009737 909.1984457224607 671.900900285691 920.375851213932Q683.2727465704083 931.5532567054033 693.8446593508124 942.7306621968746Q704.4165721312165 953.9080676883459 721.5799497514963 953.9080676883459Q733.1412359848619 953.9080676883459 742.178816806525 946.3815986700356Q751.2163976281881 938.8551296517253 757.3754485622048 918.7346594929695L829.3386781588197 702.2393067479134Q837.9209604859352 677.1596282497048 834.7082393467426 660.3287564143538Q831.49551820755 643.4978845790029 813.9078307375312 636.3388336449862Q796.8538007512689 629.8239748626947 784.1914402358234 636.5387915633619Q771.5290797203779 643.253608264029 760.4119258895516 660.7076626643538Q716.1032988503575 745.6505328714848 664.2243929170072 794.5089954324067Q612.3454869836569 843.3674579933286 554.8893069475889 864.0412861183286Q497.43312691152096 884.7151142433286 435.3479150235653 884.7151142433286Q341.3870453685522 884.7151142433286 294.01025826111436 844.7393689714372Q246.6334711536765 804.7636236995459 246.6334711536765 737.7003709748387Q246.6334711536765 697.9482077583671 266.7332228384912 665.0729027725756Q286.8329745233059 632.1975977867842 339.76674784719944 604.4327664338052Q392.700521171093 576.6679350808263 489.7462566792965 551.8030128180981Q610.4490631371737 522.7588913366199 681.677877318114 480.61389557644725Q752.9066914990544 438.46889981627464 784.1200196482241 380.2105582393706Q815.3333477973938 321.9522166624665 815.3333477973938 244.50112587213516Q815.3333477973938 165.89820697903633 775.8638754636049 105.32770115882158Q736.394403129816 44.757195338606834 664.9878715351224 10.754855636507273Q593.5813399404287 -23.24748406559229 497.70378302037716 -23.24748406559229Q437.0991685092449 -23.24748406559229 398.900037843734 -10.049580913037062Q360.70090717822313 3.1483222395181656 335.6113753505051 16.07939665019512Q310.5218435227871 29.010471060872078 288.8450652807951 29.010471060872078Q270.0355152711272 29.010471060872078 257.7488333322108 16.212039601057768Q245.46215139329433 3.413608141243458 234.46594931930304 -9.651652060449123Q223.46974724531174 -22.716912262141705 207.7748144492507 -22.716912262141705Q196.9029203057289 -22.716912262141705 188.97796971350908 -14.802459716796875Q181.05301912128925 -6.888007171452045 177.27397987991571 11.652622193098068L133.67759174853563 215.2730908319354Q127.16284154355526 247.7776687219739 130.34245792031288 263.72996312752366Q133.5220742970705 279.6822575330734 149.19708945602179 285.7518919631839Q165.8510950282216 292.1994357779622 178.3582126237452 283.4835679233074Q190.8653302192688 274.76770006865263 204.20665255934 251.82121415436268Q262.82101175934076 141.57586001604795 336.5731037892401 93.58226908743382Q410.3251958191395 45.588678158819675 488.77113178372383 45.588678158819675Z"/><path transform="translate(110.33 31) scale(0.01445 -0.01445)" d="M488.77113178372383 45.588678158819675Q563.4356826916337 45.588678158819675 606.5445558540523 84.88706548139453Q649.6534290164709 124.18545280396938 649.6534290164709 186.07074731588364Q649.6534290164709 225.19959240406752 631.4553666561842 256.5296772122383Q613.2573042958975 287.8597620204091 565.8143147267401 313.72362638264894Q518.3713251575828 339.5874907448888 431.1702077612281 362.0954997166991Q295.15181524306536 394.1818710193038 218.15383936464787 440.18417667225003Q141.15586348623037 486.18648232519627 109.94208444654942 545.2458220534027Q78.72830540686846 604.3051617816091 78.72830540686846 674.7289900332689Q78.72830540686846 801.2250298112631 168.78013459593058 877.2997200079262Q258.8319637849927 953.3744102045894 425.0336380675435 953.3744102045894Q487.52463223040104 953.3744102045894 528.2705734558403 942.4638334549963Q569.0165146812797 931.5532567054033 595.4870007783175 920.375851213932Q621.9574868753552 909.1984457224607 641.099515683949 909.1984457224607Q660.5290540009737 909.1984457224607 671.900900285691 920.375851213932Q683.2727465704083 931.5532567054033 693.8446593508124 942.7306621968746Q704.4165721312165 953.9080676883459 721.5799497514963 953.9080676883459Q733.1412359848619 953.9080676883459 742.178816806525 946.3815986700356Q751.2163976281881 938.8551296517253 757.3754485622048 918.7346594929695L829.3386781588197 702.2393067479134Q837.9209604859352 677.1596282497048 834.7082393467426 660.3287564143538Q831.49551820755 643.4978845790029 813.9078307375312 636.3388336449862Q796.8538007512689 629.8239748626947 784.1914402358234 636.5387915633619Q771.5290797203779 643.253608264029 760.4119258895516 660.7076626643538Q716.1032988503575 745.6505328714848 664.2243929170072 794.5089954324067Q612.3454869836569 843.3674579933286 554.8893069475889 864.0412861183286Q497.43312691152096 884.7151142433286 435.3479150235653 884.7151142433286Q341.3870453685522 884.7151142433286 294.01025826111436 844.7393689714372Q246.6334711536765 804.7636236995459 246.6334711536765 737.7003709748387Q246.6334711536765 697.9482077583671 266.7332228384912 665.0729027725756Q286.8329745233059 632.1975977867842 339.76674784719944 604.4327664338052Q392.700521171093 576.6679350808263 489.7462566792965 551.8030128180981Q610.4490631371737 522.7588913366199 681.677877318114 480.61389557644725Q752.9066914990544 438.46889981627464 784.1200196482241 380.2105582393706Q815.3333477973938 321.9522166624665 815.3333477973938 244.50112587213516Q815.3333477973938 165.89820697903633 775.8638754636049 105.32770115882158Q736.394403129816 44.757195338606834 664.9878715351224 10.754855636507273Q593.5813399404287 -23.24748406559229 497.70378302037716 -23.24748406559229Q437.0991685092449 -23.24748406559229 398.900037843734 -10.049580913037062Q360.70090717822313 3.1483222395181656 335.6113753505051 16.07939665019512Q310.5218435227871 29.010471060872078 288.8450652807951 29.010471060872078Q270.0355152711272 29.010471060872078 257.7488333322108 16.212039601057768Q245.46215139329433 3.413608141243458 234.46594931930304 -9.651652060449123Q223.46974724531174 -22.716912262141705 207.7748144492507 -22.716912262141705Q196.9029203057289 -22.716912262141705 188.97796971350908 -14.802459716796875Q181.05301912128925 -6.888007171452045 177.27397987991571 11.652622193098068L133.67759174853563 215.2730908319354Q127.16284154355526 247.7776687219739 130.34245792031288 263.72996312752366Q133.5220742970705 279.6822575330734 149.19708945602179 285.7518919631839Q165.8510950282216 292.1994357779622 178.3582126237452 283.4835679233074Q190.8653302192688 274.76770006865263 204.20665255934 251.82121415436268Q262.82101175934076 141.57586001604795 336.5731037892401 93.58226908743382Q410.3251958191395 45.588678158819675 488.77113178372383 45.588678158819675Z"/></g><g fill="#B4532A"><path transform="translate(129.93 31) scale(0.01445 -0.01445)" d="M929.9933064356446 697.0180392935872Q929.9933064356446 650.3916288018227 899.4212881661952 619.0650465786457Q868.8492698967457 587.7384643554688 818.4854866191745 587.7384643554688Q769.0785922184587 587.7384643554688 741.7873188965023 616.2740207388997Q714.4960455745459 644.8095771223307 714.4960455745459 692.0098061040044V725.4155601263046Q714.4960455745459 795.1300308555365 666.3359639793634 838.0439475774765Q618.175882384181 880.9578642994165 533.9903356358409 880.9578642994165Q457.5889075398445 880.9578642994165 398.41962319239974 837.2490496002138Q339.25033884495497 793.540234901011 305.52574302628636 713.8322646059096Q271.80114720761776 634.1242943108082 271.80114720761776 526.505242086947Q271.80114720761776 395.77418354153633 315.8703678846359 305.2977907806635Q359.9395885616541 214.82139801979065 436.88914300501347 168.07745418325067Q513.8386974483728 121.33351034671068 612.2686357721686 121.33351034671068Q707.1801002398133 121.33351034671068 776.6920153982937 165.50927091389894Q846.2039305567741 209.6850314810872 875.8509310856462 283.6925862208009Q887.3472083210945 299.1675416305661 895.26264423877 304.9260221756995Q903.1780801564455 310.6845027208328 913.1612751856446 310.64028615504503Q925.8792928904295 310.59606958925724 931.2267525419593 300.045840870589Q936.5742121934891 289.4956121519208 935.9300200417638 275.0878631323576Q927.7827897518873 191.76215936243534 875.8362090699375 124.03861476108432Q823.8896283879876 56.315070159733295 738.7579314187169 16.833780840039253Q653.6262344494462 -22.64750847965479 544.7463040947914 -22.64750847965479Q407.3934463635087 -22.64750847965479 302.3141208998859 35.36878456547856Q197.23479543626308 93.38507761061192 138.10657059773803 199.34611006826162Q78.97834575921297 305.30714252591133 78.97834575921297 448.95245361328125Q78.97834575921297 591.2486164942384 139.12753938883543 705.3651292659342Q199.2767330184579 819.4816420376301 308.06404927000403 886.5622186586261Q416.8513655215502 953.6427952796221 562.9994098246098 953.6427952796221Q676.6538625657558 953.6427952796221 758.9517378993332 918.2831591777503Q841.2496132329106 882.9235230758786 885.6214598342776 824.4510736390948Q929.9933064356446 765.978624202311 929.9933064356446 697.0180392935872Z"/><path transform="translate(144.34 31) scale(0.01445 -0.01445)" d="M413.39786107093096 1426.6888147741556V129.965014629066Q413.39786107093096 104.28888053447008 423.11135517433286 91.2293542958796Q432.82484927773476 78.16982805728912 451.80672170966864 73.27925728261471L498.63962107151747 63.3234738484025Q515.4691703096032 58.653863832354546 523.5065272301435 50.70526886358857Q531.5438841506839 42.7566738948226 531.5438841506839 30.50599557161331Q531.5438841506839 16.56458906829357 521.1937219277024 8.282294534146786Q510.843559704721 0 489.2536613494158 0H127.20339637994766Q106.32400827854872 0 96.21856651455164 8.282294534146786Q86.11312475055456 16.56458906829357 86.11312475055456 30.50599557161331Q86.11312475055456 42.1566983088851 94.01628913357854 50.17161137983203Q101.91945351660252 58.18652445077896 118.34798147529364 62.92245256900787L167.18287456780672 73.27925728261471Q186.2089635655284 78.70348554104567 195.9003493860364 91.2293542958796Q205.5917352065444 103.75522305071354 205.5917352065444 129.29872094094753V1290.163009636104Q205.5917352065444 1311.1737248376012 198.55542269349098 1320.5890521779656Q191.51911018043756 1330.00437951833 175.13500244915485 1331.7834187597036L106.38726768642664 1334.2740736976266Q90.53460655361414 1336.7647286355495 83.74246852472425 1343.4680504240096Q76.95033049583435 1350.1713722124696 76.95033049583435 1360.732658445835Q76.95033049583435 1372.8498122766614 84.74307553470135 1380.6541608050466Q92.53582057356834 1388.4585093334317 113.19192845374346 1395.6849838122725L285.9952712804079 1455.0588578134775Q316.2105765789747 1465.998053431511 334.2429491728544 1470.400780417025Q352.2753217667341 1474.8035074025393 364.8819300085306 1474.8035074025393Q389.40672428160906 1474.8035074025393 401.40229267627 1461.9189721085131Q413.39786107093096 1449.034436814487 413.39786107093096 1426.6888147741556Z"/><path transform="translate(152.92 31) scale(0.01445 -0.01445)" d="M802.2021756768227 108.58554645627737V179.08325245976448L796.865057952702 184.39464008063078V760.7352755144238Q796.865057952702 781.7459907159209 789.8287454396486 791.1613180562854Q782.7924329265952 800.5766453966498 766.4083251953125 802.3556846380234L697.6605904325843 804.8463395759463Q681.8079292997718 807.3369945138693 675.0157912708819 814.0403163023293Q668.223653241992 820.7436380907893 668.223653241992 831.3049243241549Q668.223653241992 843.4220781549811 676.016398280859 851.2264266833663Q683.809143319726 859.0307752117515 704.4652511999011 866.2572496905923L877.2685940265656 925.6311236917973Q906.3722592145205 936.214511461556 924.6046440154314 940.7951423712075Q942.8370288163424 945.375773280859 957.5784841477871 945.375773280859Q981.0358548760414 945.375773280859 992.853519346565 932.4912379868329Q1004.6711838170886 919.6067026928067 1004.6711838170886 897.2610806524754V129.965014629066Q1004.6711838170886 104.28888053447008 1014.3846779204905 91.2293542958796Q1024.0981720238924 78.16982805728912 1043.0800444558263 73.27925728261471L1089.912943817675 63.3234738484025Q1106.7424930557609 58.653863832354546 1114.7798499763012 50.70526886358857Q1122.8172068968415 42.7566738948226 1122.8172068968415 30.50599557161331Q1122.8172068968415 16.56458906829357 1112.46704467386 8.282294534146786Q1102.1168824508786 0 1080.5269840955734 0H898.6494906172156Q854.8510416895151 0 828.5266086831689 28.736661173403263Q802.2021756768227 57.473322346806526 802.2021756768227 108.58554645627737ZM178.25005397200584 269.39611917734146V760.7352755144238Q178.25005397200584 781.7459907159209 171.18058240786195 791.1613180562854Q164.11111084371805 800.5766453966498 147.66068501025438 802.3556846380234L78.91295024752617 804.8463395759463Q63.06028911471367 807.3369945138693 56.268151085823774 814.0403163023293Q49.47601305693388 820.7436380907893 49.47601305693388 831.3049243241549Q49.47601305693388 843.4220781549811 57.26875809580088 851.2264266833663Q65.06150313466787 859.0307752117515 85.71761101484299 866.2572496905923L258.65359004586935 925.6311236917973Q288.86889534443617 936.5703193098307 306.90126793831587 940.9730462953448Q324.93364053219557 945.375773280859 337.54024877399206 945.375773280859Q362.0650430470705 945.375773280859 374.06061144173145 932.4912379868329Q386.0561798363924 919.6067026928067 386.0561798363924 897.2610806524754V300.16129675507545Q386.0561798363924 199.96382078528404 434.62273539602757 150.55193518474698Q483.1892909556627 101.14004958420992 563.3902323096991 101.14004958420992Q612.9905809164047 101.14004958420992 669.4496601857245 126.4979223497212Q725.9087394550443 151.85579511523247 790.1155534237623 206.5260830745101L832.3878173828125 242.75213673710823L868.495687186718 206.2441339418292L825.7793994024396 168.86244075745344Q708.589254334569 62.873162135481834 620.7034850977361 20.278622083365917Q532.8177158609033 -22.31591796875 452.58812871575356 -22.31591796875Q329.5512699112296 -22.31591796875 253.90066194161773 55.79423390701413Q178.25005397200584 133.90438578277826 178.25005397200584 269.39611917734146Z"/><path transform="translate(170.18 31) scale(0.01445 -0.01445)" d="M365.39859349280596 1426.6888147741556V120.77867252379656L270.9459724202752 4.850830584764481Q239.8370303362608 -9.62421990931034 224.98437903821468 -15.30477211624384Q210.13172774016857 -20.985324323177338 195.12400313466787 -20.985324323177338Q178.42565892636776 -20.985324323177338 168.00906327739358 -11.035623911768198Q157.5924676284194 -1.0859235003590584 157.5924676284194 19.080743461847305V1290.163009636104Q157.5924676284194 1311.1737248376012 150.55615511536598 1320.5890521779656Q143.51984260231256 1330.00437951833 127.13573487102985 1331.7834187597036L58.38800010830164 1334.2740736976266Q42.53533897548914 1336.7647286355495 35.743200946599245 1343.4680504240096Q28.95106291770935 1350.1713722124696 28.95106291770935 1360.732658445835Q28.95106291770935 1372.8498122766614 36.74380795657635 1380.6541608050466Q44.536552995443344 1388.4585093334317 65.19266087561846 1395.6849838122725L237.9960037022829 1455.0588578134775Q268.2113090008497 1465.998053431511 285.97685285285115 1470.400780417025Q303.7423967048526 1474.8035074025393 316.8826624304056 1474.8035074025393Q341.40745670348406 1474.8035074025393 353.403025098145 1461.9189721085131Q365.39859349280596 1449.034436814487 365.39859349280596 1426.6888147741556ZM319.5989986434579 667.4782496616244 289.0946440845728 716.2152832224965Q366.4043643400073 830.0748082920909 465.21265310421586 891.7924836836755Q564.0209418684244 953.5101590752602 680.3549604192376 953.5101590752602Q797.1633368879557 953.5101590752602 888.7917276807129 893.9612597003579Q980.4201184734702 834.4123603254557 1033.0680033154786 729.1513400748372Q1085.715888157487 623.8903198242188 1085.715888157487 487.04283318668604Q1085.715888157487 330.47854286432266 1024.3873765803874 216.0514832176268Q963.0588650032878 101.62442357093096 858.7838472723961 39.38898039236665Q754.5088295415044 -22.846462786197662 625.8135575205088 -22.846462786197662Q508.5589457079768 -22.846462786197662 417.5225074030459 34.162024695426226Q326.48606909811497 91.17051217705011 270.5217267423868 195.63633942604065L316.8551900535822 241.97366081178188Q366.7989498153329 154.35908433049917 437.36176854744554 108.28836495056748Q507.9245872795582 62.217645570635796 590.1262678653002 62.217645570635796Q668.8396669477224 62.217645570635796 731.6953797750175 106.07147658616304Q794.5510926023126 149.9253076016903 831.1061869822443 239.27591705694795Q867.6612813621759 328.6265265122056 867.6612813621759 463.34952791035175Q867.6612813621759 591.4986022412777 832.8929674103856 677.2275109365582Q798.1246534585953 762.9564196318388 737.7552415803075 806.4986118227243Q677.3858297020197 850.0408040136099 599.8493103757501 850.0408040136099Q521.6337209641933 850.0408040136099 450.349636297673 804.6213094480336Q379.06555163115263 759.2018148824573 319.5989986434579 667.4782496616244Z"/></g></svg>
